<svg version="1.1" xmlns="http://www.w3.org/2000/svg" xmlns:xlink="http://www.w3.org/1999/xlink" width="318.00758" height="166.46176" viewBox="0,0,318.00758,166.46176"><g transform="translate(-81.37121,-96.10506)"><g data-paper-data="{&quot;isPaintingLayer&quot;:true}" fill-rule="nonzero" stroke-linejoin="miter" stroke-miterlimit="10" stroke-dasharray="" stroke-dashoffset="0" style="mix-blend-mode: normal"><text transform="translate(81.37121,120.38711) scale(0.28815,0.28815)" font-size="40" xml:space="preserve" fill="#ffffff" fill-rule="nonzero" stroke="#ffffff" stroke-width="0" stroke-linecap="butt" stroke-linejoin="miter" stroke-miterlimit="10" stroke-dasharray="" stroke-dashoffset="0" font-family="Pixel" font-weight="normal" text-anchor="start" style="mix-blend-mode: normal"><tspan x="0" dy="0">运动：</tspan></text><g fill="#ffffff" stroke="#ffffff"><path d="M302.90551,121.96952l-3.57221,-3.43014l3.57221,-3.49366" stroke-width="2" stroke-linecap="round"/><path d="M295.08514,123.01631c0,-1.45767 0,-6.28333 0,-8.93757c0,-1.07099 0.74651,-1.78845 1.85417,-1.78845c2.68809,0 7.50316,0 8.93757,0c0.79368,0 1.65702,0.73235 1.65702,1.82131c0,2.65083 0,7.41481 0,8.87185c0,0.83291 -0.64536,1.75559 -1.62416,1.75559c-2.57581,0 -7.46082,0 -8.97043,0c-0.87152,0 -1.85417,-0.90283 -1.85417,-1.72273z" stroke-width="1.5" stroke-linecap="butt"/></g><path d="M310.68283,107.58109c0,-1.45767 0,-6.28334 0,-8.93758c0,-1.07099 0.74651,-1.78845 1.85418,-1.78845c2.68809,0 7.50316,0 8.93757,0c0.79368,0 1.65702,0.73235 1.65702,1.82131c0,2.65083 0,7.41482 0,8.87186c0,0.83291 -0.64535,1.75559 -1.62416,1.75559c-2.57581,0 -7.46081,0 -8.97043,0c-0.87152,0 -1.85418,-0.90283 -1.85418,-1.72273z" fill="#ffffff" stroke="#ffffff" stroke-width="1.5" stroke-linecap="butt"/><g data-paper-data="{&quot;index&quot;:null}" fill="#ffffff" stroke="#ffffff"><path d="M330.96308,115.04572l3.57221,3.49366l-3.57221,3.43014" stroke-width="2" stroke-linecap="round"/><path d="M336.92929,124.73905c-1.50961,0 -6.39462,0 -8.97043,0c-0.97881,0 -1.62416,-0.92269 -1.62416,-1.7556c0,-1.45704 0,-6.22103 0,-8.87186c0,-1.08896 0.86334,-1.82131 1.65702,-1.82131c1.43441,0 6.24949,0 8.93757,0c1.10766,0 1.85417,0.71746 1.85417,1.78845c0,2.65424 0,7.47991 0,8.93758c0,0.81991 -0.98266,1.72274 -1.85417,1.72274z" stroke-width="1.5" stroke-linecap="butt"/></g><path d="M313.75921,104.53893l3.42458,-3.57755l3.49921,3.56677" fill="#ffffff" stroke="#000000" stroke-width="2" stroke-linecap="round"/><path d="M354.93049,123.01631c0,-1.45767 0,-6.28334 0,-8.93758c0,-1.07099 0.74651,-1.78845 1.85417,-1.78845c2.68809,0 7.50316,0 8.93757,0c0.79368,0 1.65702,0.73235 1.65702,1.82131c0,2.65083 0,7.41482 0,8.87186c0,0.83291 -0.64535,1.7556 -1.62415,1.7556c-2.57581,0 -7.46082,0 -8.97043,0c-0.87152,0 -1.85417,-0.90283 -1.85417,-1.72273z" fill="#ffffff" stroke="#ffffff" stroke-width="1.5" stroke-linecap="butt"/><path d="M370.52819,107.58109c0,-1.45767 0,-6.28333 0,-8.93757c0,-1.07099 0.74651,-1.78845 1.85417,-1.78845c2.68809,0 7.50316,0 8.93757,0c0.79368,0 1.65702,0.73235 1.65702,1.82131c0,2.65083 0,7.41481 0,8.87186c0,0.83291 -0.64535,1.75559 -1.62415,1.75559c-2.57581,0 -7.46082,0 -8.97043,0c-0.87152,0 -1.85417,-0.90283 -1.85417,-1.72273z" fill="#ffffff" stroke="#ffffff" stroke-width="1.5" stroke-linecap="butt"/><path d="M396.77462,124.73905c-1.50961,0 -6.39461,0 -8.97043,0c-0.97881,0 -1.62416,-0.92269 -1.62416,-1.7556c0,-1.45704 0,-6.22103 0,-8.87186c0,-1.08896 0.86334,-1.82131 1.65702,-1.82131c1.43441,0 6.24948,0 8.93757,0c1.10766,0 1.85417,0.71746 1.85417,1.78845c0,2.65424 0,7.47991 0,8.93758c0,0.81991 -0.98266,1.72274 -1.85417,1.72274z" fill="#ffffff" stroke="#ffffff" stroke-width="1.5" stroke-linecap="butt"/><text transform="translate(342.6949,123.49339) scale(0.18675,0.18675)" font-size="40" xml:space="preserve" fill="#ffffff" fill-rule="nonzero" stroke="none" stroke-width="1" stroke-linecap="butt" stroke-linejoin="miter" stroke-miterlimit="10" stroke-dasharray="" stroke-dashoffset="0" font-family="Pixel" font-weight="normal" text-anchor="start" style="mix-blend-mode: normal"><tspan x="0" dy="0">或</tspan></text><text transform="translate(359.00719,120.88142) scale(0.17374,0.17374)" font-size="40" xml:space="preserve" data-paper-data="{&quot;index&quot;:null}" fill="#000000" fill-rule="nonzero" stroke="none" stroke-width="1" stroke-linecap="butt" stroke-linejoin="miter" stroke-miterlimit="10" stroke-dasharray="" stroke-dashoffset="0" font-family="Sans Serif" font-weight="normal" text-anchor="start" style="mix-blend-mode: normal"><tspan x="0" dy="0">A</tspan></text><text transform="translate(389.65327,120.74989) scale(0.17374,0.17374)" font-size="40" xml:space="preserve" fill="#000000" fill-rule="nonzero" stroke="none" stroke-width="1" stroke-linecap="butt" stroke-linejoin="miter" stroke-miterlimit="10" stroke-dasharray="" stroke-dashoffset="0" font-family="Sans Serif" font-weight="normal" text-anchor="start" style="mix-blend-mode: normal"><tspan x="0" dy="0">D</tspan></text><text transform="translate(276.93078,124.41409) scale(0.18675,0.18675)" font-size="40" xml:space="preserve" fill="#ffffff" fill-rule="nonzero" stroke="none" stroke-width="1" stroke-linecap="butt" stroke-linejoin="miter" stroke-miterlimit="10" stroke-dasharray="" stroke-dashoffset="0" font-family="Pixel" font-weight="normal" text-anchor="start" style="mix-blend-mode: normal"><tspan x="0" dy="0">以及</tspan></text><g fill="#ffffff" stroke-width="1.5" stroke-linecap="butt"><path d="M220.5196,123.19168c0,-1.45767 0,-6.28333 0,-8.93757c0,-1.07099 0.74651,-1.78845 1.85417,-1.78845c2.68809,0 47.78368,0 49.21809,0c0.79368,0 1.65702,0.73235 1.65702,1.82131c0,2.65083 0,7.41481 0,8.87185c0,0.83291 -0.64535,1.75559 -1.62415,1.75559c-2.57581,0 -47.74133,0 -49.25095,0c-0.87152,0 -1.85417,-0.90283 -1.85417,-1.72273z" stroke="#ffffff"/><path d="M235.61536,121.31577v-0.46035h21.17604v0.46035z" stroke="#000000"/></g><text transform="translate(81.37121,156.67618) scale(0.28906,0.28906)" font-size="40" xml:space="preserve" fill="#ffffff" fill-rule="nonzero" stroke="#ffffff" stroke-width="0" stroke-linecap="butt" stroke-linejoin="miter" stroke-miterlimit="10" stroke-dasharray="" stroke-dashoffset="0" font-family="Pixel" font-weight="normal" text-anchor="start" style="mix-blend-mode: normal"><tspan x="0" dy="0">选择项目：</tspan></text><path d="M307.23049,157.51631c0,-1.45766 0,-6.28334 0,-8.93758c0,-1.071 0.74651,-1.78845 1.85417,-1.78845c2.68809,0 7.50316,0 8.93757,0c0.79368,0 1.65702,0.73235 1.65702,1.82131c0,2.65083 0,7.41482 0,8.87186c0,0.83291 -0.64535,1.75559 -1.62416,1.75559c-2.57581,0 -7.46081,0 -8.97043,0c-0.87152,0 -1.85417,-0.90283 -1.85417,-1.72273z" fill="#ffffff" stroke="#ffffff" stroke-width="1.5" stroke-linecap="butt"/><path d="M324.68235,146.79027c1.50961,0 6.39462,0 8.97043,0c0.97881,0 1.62415,0.92269 1.62415,1.75559c0,1.45704 0,6.22103 0,8.87186c0,1.08896 -0.86334,1.82131 -1.65702,1.82131c-1.43441,0 -6.24948,0 -8.93757,0c-1.10766,0 -1.85417,-0.71746 -1.85417,-1.78845c0,-2.65424 0,-7.47991 0,-8.93757c0,-0.81991 0.98266,-1.72274 1.85417,-1.72274z" data-paper-data="{&quot;index&quot;:null}" fill="#ffffff" stroke="#ffffff" stroke-width="1.5" stroke-linecap="butt"/><path d="M349.07463,159.23905c-1.50961,0 -6.39461,0 -8.97043,0c-0.97881,0 -1.62416,-0.92269 -1.62416,-1.75559c0,-1.45704 0,-6.22103 0,-8.87186c0,-1.08896 0.86334,-1.82131 1.65702,-1.82131c1.43441,0 6.24948,0 8.93757,0c1.10766,0 1.85417,0.71746 1.85417,1.78845c0,2.65424 0,7.47991 0,8.93758c0,0.81991 -0.98266,1.72274 -1.85417,1.72274z" fill="#ffffff" stroke="#ffffff" stroke-width="1.5" stroke-linecap="butt"/><text transform="translate(327.15364,155.44444) scale(0.17374,0.17374)" font-size="40" xml:space="preserve" fill="#000000" fill-rule="nonzero" stroke="none" stroke-width="1" stroke-linecap="butt" stroke-linejoin="miter" stroke-miterlimit="10" stroke-dasharray="" stroke-dashoffset="0" font-family="Sans Serif" font-weight="normal" text-anchor="start" style="mix-blend-mode: normal"><tspan x="0" dy="0">2</tspan></text><text transform="translate(311.70718,155.5814) scale(0.17374,0.17374)" font-size="40" xml:space="preserve" data-paper-data="{&quot;index&quot;:null}" fill="#000000" fill-rule="nonzero" stroke="none" stroke-width="1" stroke-linecap="butt" stroke-linejoin="miter" stroke-miterlimit="10" stroke-dasharray="" stroke-dashoffset="0" font-family="Sans Serif" font-weight="normal" text-anchor="start" style="mix-blend-mode: normal"><tspan x="0" dy="0">1</tspan></text><text transform="translate(342.55326,155.44987) scale(0.17374,0.17374)" font-size="40" xml:space="preserve" fill="#000000" fill-rule="nonzero" stroke="none" stroke-width="1" stroke-linecap="butt" stroke-linejoin="miter" stroke-miterlimit="10" stroke-dasharray="" stroke-dashoffset="0" font-family="Sans Serif" font-weight="normal" text-anchor="start" style="mix-blend-mode: normal"><tspan x="0" dy="0">3</tspan></text><path d="M354.23049,157.51631c0,-1.45766 0,-6.28334 0,-8.93758c0,-1.071 0.74651,-1.78845 1.85417,-1.78845c2.68809,0 7.50316,0 8.93757,0c0.79368,0 1.65702,0.73235 1.65702,1.82131c0,2.65083 0,7.41482 0,8.87186c0,0.83291 -0.64535,1.75559 -1.62416,1.75559c-2.57581,0 -7.46081,0 -8.97043,0c-0.87152,0 -1.85417,-0.90283 -1.85417,-1.72273z" fill="#ffffff" stroke="#ffffff" stroke-width="1.5" stroke-linecap="butt"/><path d="M371.68236,146.79027c1.50961,0 6.39462,0 8.97043,0c0.97881,0 1.62415,0.92269 1.62415,1.75559c0,1.45704 0,6.22103 0,8.87186c0,1.08896 -0.86334,1.82131 -1.65702,1.82131c-1.43441,0 -6.24948,0 -8.93757,0c-1.10766,0 -1.85417,-0.71746 -1.85417,-1.78845c0,-2.65424 0,-7.47991 0,-8.93757c0,-0.81991 0.98266,-1.72274 1.85417,-1.72274z" data-paper-data="{&quot;index&quot;:null}" fill="#ffffff" stroke="#ffffff" stroke-width="1.5" stroke-linecap="butt"/><path d="M396.07463,159.23905c-1.50961,0 -6.39461,0 -8.97043,0c-0.97881,0 -1.62416,-0.92269 -1.62416,-1.75559c0,-1.45704 0,-6.22103 0,-8.87186c0,-1.08896 0.86334,-1.82131 1.65702,-1.82131c1.43441,0 6.24948,0 8.93757,0c1.10766,0 1.85417,0.71746 1.85417,1.78845c0,2.65424 0,7.47991 0,8.93758c0,0.81991 -0.98266,1.72274 -1.85417,1.72274z" fill="#ffffff" stroke="#ffffff" stroke-width="1.5" stroke-linecap="butt"/><text transform="translate(374.35364,155.44444) scale(0.17374,0.17374)" font-size="40" xml:space="preserve" fill="#000000" fill-rule="nonzero" stroke="none" stroke-width="1" stroke-linecap="butt" stroke-linejoin="miter" stroke-miterlimit="10" stroke-dasharray="" stroke-dashoffset="0" font-family="Sans Serif" font-weight="normal" text-anchor="start" style="mix-blend-mode: normal"><tspan x="0" dy="0">5</tspan></text><text transform="translate(358.70719,155.5814) scale(0.17374,0.17374)" font-size="40" xml:space="preserve" data-paper-data="{&quot;index&quot;:null}" fill="#000000" fill-rule="nonzero" stroke="none" stroke-width="1" stroke-linecap="butt" stroke-linejoin="miter" stroke-miterlimit="10" stroke-dasharray="" stroke-dashoffset="0" font-family="Sans Serif" font-weight="normal" text-anchor="start" style="mix-blend-mode: normal"><tspan x="0" dy="0">4</tspan></text><text transform="translate(389.35327,155.44987) scale(0.17374,0.17374)" font-size="40" xml:space="preserve" fill="#000000" fill-rule="nonzero" stroke="none" stroke-width="1" stroke-linecap="butt" stroke-linejoin="miter" stroke-miterlimit="10" stroke-dasharray="" stroke-dashoffset="0" font-family="Sans Serif" font-weight="normal" text-anchor="start" style="mix-blend-mode: normal"><tspan x="0" dy="0">6</tspan></text><text transform="translate(81.37121,190.67622) scale(0.28906,0.28906)" font-size="40" xml:space="preserve" fill="#ffffff" fill-rule="nonzero" stroke="#ffffff" stroke-width="0" stroke-linecap="butt" stroke-linejoin="miter" stroke-miterlimit="10" stroke-dasharray="" stroke-dashoffset="0" font-family="Pixel" font-weight="normal" text-anchor="start" style="mix-blend-mode: normal"><tspan x="0" dy="0">使用项目：</tspan></text><text transform="translate(136.92307,190.50608) scale(0.29137,0.29137)" font-size="40" xml:space="preserve" data-paper-data="{&quot;index&quot;:null}" fill="#ffffff" fill-rule="nonzero" stroke="none" stroke-width="1" stroke-linecap="butt" stroke-linejoin="miter" stroke-miterlimit="10" stroke-dasharray="" stroke-dashoffset="0" font-family="Sans Serif" font-weight="normal" text-anchor="start" style="mix-blend-mode: normal"><tspan x="0" dy="0">左键</tspan></text><text transform="translate(81.37121,226.17622) scale(0.28906,0.28906)" font-size="40" xml:space="preserve" fill="#ffffff" fill-rule="nonzero" stroke="#ffffff" stroke-width="0" stroke-linecap="butt" stroke-linejoin="miter" stroke-miterlimit="10" stroke-dasharray="" stroke-dashoffset="0" font-family="Pixel" font-weight="normal" text-anchor="start" style="mix-blend-mode: normal"><tspan x="0" dy="0">丢弃物品：</tspan></text><path d="M393.57463,227.73905c-1.50961,0 -6.39461,0 -8.97043,0c-0.97881,0 -1.62416,-0.92269 -1.62416,-1.75559c0,-1.45704 0,-6.22103 0,-8.87186c0,-1.08896 0.86334,-1.82131 1.65702,-1.82131c1.43441,0 6.24948,0 8.93757,0c1.10766,0 1.85417,0.71746 1.85417,1.78845c0,2.65424 0,7.47991 0,8.93758c0,0.81991 -0.98266,1.72274 -1.85417,1.72274z" fill="#ffffff" stroke="#ffffff" stroke-width="1.5" stroke-linecap="butt"/><text transform="translate(386.94418,224.47264) scale(0.20722,0.20722)" font-size="40" xml:space="preserve" fill="#000000" fill-rule="nonzero" stroke="none" stroke-width="1" stroke-linecap="butt" stroke-linejoin="miter" stroke-miterlimit="10" stroke-dasharray="" stroke-dashoffset="0" font-family="Sans Serif" font-weight="normal" text-anchor="start" style="mix-blend-mode: normal"><tspan x="0" dy="0">Q</tspan></text><path d="M331.46151,114.90217l3.60707,3.39348l-3.53634,3.52996" data-paper-data="{&quot;origRot&quot;:0}" fill="#ffffff" stroke="#000000" stroke-width="2" stroke-linecap="round"/><path d="M302.7956,122.18856l-3.46727,-3.53619l3.67582,-3.38447" data-paper-data="{&quot;origRot&quot;:0}" fill="#ffffff" stroke="#000000" stroke-width="2" stroke-linecap="round"/><text transform="translate(373.73835,105.49262) scale(0.17374,0.17374)" font-size="40" xml:space="preserve" fill="#000000" fill-rule="nonzero" stroke="none" stroke-width="1" stroke-linecap="butt" stroke-linejoin="miter" stroke-miterlimit="10" stroke-dasharray="" stroke-dashoffset="0" font-family="Sans Serif" font-weight="normal" text-anchor="start" style="mix-blend-mode: normal"><tspan x="0" dy="0">W</tspan></text><text transform="translate(81.37121,259.67622) scale(0.28906,0.28906)" font-size="40" xml:space="preserve" fill="#ffffff" fill-rule="nonzero" stroke="#ffffff" stroke-width="0" stroke-linecap="butt" stroke-linejoin="miter" stroke-miterlimit="10" stroke-dasharray="" stroke-dashoffset="0" font-family="Pixel" font-weight="normal" text-anchor="start" style="mix-blend-mode: normal"><tspan x="0" dy="0">回城：</tspan></text><path d="M393.57463,261.23905c-1.50961,0 -6.39461,0 -8.97043,0c-0.97881,0 -1.62416,-0.92269 -1.62416,-1.75559c0,-1.45704 0,-6.22103 0,-8.87186c0,-1.08896 0.86334,-1.82131 1.65702,-1.82131c1.43441,0 6.24948,0 8.93757,0c1.10766,0 1.85417,0.71746 1.85417,1.78845c0,2.65424 0,7.47991 0,8.93758c0,0.81991 -0.98266,1.72274 -1.85417,1.72274z" fill="#ffffff" stroke="#ffffff" stroke-width="1.5" stroke-linecap="butt"/><text transform="translate(386.94418,257.97264) scale(0.20722,0.20722)" font-size="40" xml:space="preserve" fill="#000000" fill-rule="nonzero" stroke="none" stroke-width="1" stroke-linecap="butt" stroke-linejoin="miter" stroke-miterlimit="10" stroke-dasharray="" stroke-dashoffset="0" font-family="Sans Serif" font-weight="normal" text-anchor="start" style="mix-blend-mode: normal"><tspan x="0" dy="0">R</tspan></text><text transform="translate(177.03787,190.34289) scale(0.28906,0.28906)" font-size="40" xml:space="preserve" fill="#ffffff" fill-rule="nonzero" stroke="#ffffff" stroke-width="0" stroke-linecap="butt" stroke-linejoin="miter" stroke-miterlimit="10" stroke-dasharray="" stroke-dashoffset="0" font-family="Pixel" font-weight="normal" text-anchor="start" style="mix-blend-mode: normal"><tspan x="0" dy="0">挖掘方块：</tspan></text><text transform="translate(232.58974,190.17275) scale(0.29137,0.29137)" font-size="40" xml:space="preserve" data-paper-data="{&quot;index&quot;:null}" fill="#ffffff" fill-rule="nonzero" stroke="none" stroke-width="1" stroke-linecap="butt" stroke-linejoin="miter" stroke-miterlimit="10" stroke-dasharray="" stroke-dashoffset="0" font-family="Sans Serif" font-weight="normal" text-anchor="start" style="mix-blend-mode: normal"><tspan x="0" dy="0">左键</tspan></text><text transform="translate(272.70453,190.34289) scale(0.28906,0.28906)" font-size="40" xml:space="preserve" fill="#ffffff" fill-rule="nonzero" stroke="#ffffff" stroke-width="0" stroke-linecap="butt" stroke-linejoin="miter" stroke-miterlimit="10" stroke-dasharray="" stroke-dashoffset="0" font-family="Pixel" font-weight="normal" text-anchor="start" style="mix-blend-mode: normal"><tspan x="0" dy="0">放置方块：</tspan></text><text transform="translate(328.2564,190.17275) scale(0.29137,0.29137)" font-size="40" xml:space="preserve" data-paper-data="{&quot;index&quot;:null}" fill="#ffffff" fill-rule="nonzero" stroke="none" stroke-width="1" stroke-linecap="butt" stroke-linejoin="miter" stroke-miterlimit="10" stroke-dasharray="" stroke-dashoffset="0" font-family="Sans Serif" font-weight="normal" text-anchor="start" style="mix-blend-mode: normal"><tspan x="0" dy="0">右键</tspan></text><text transform="translate(269.22656,158.67294) scale(0.355,0.355)" font-size="40" xml:space="preserve" fill="#ffffff" fill-rule="nonzero" stroke="none" stroke-width="1" stroke-linecap="butt" stroke-linejoin="miter" stroke-miterlimit="10" stroke-dasharray="" stroke-dashoffset="0" font-family="Pixel" font-weight="normal" text-anchor="start" style="mix-blend-mode: normal"><tspan x="0" dy="0">滚轮/</tspan></text></g></g></svg>