<svg version="1.1" xmlns="http://www.w3.org/2000/svg" xmlns:xlink="http://www.w3.org/1999/xlink" width="112.34828" height="22.10816" viewBox="0,0,112.34828,22.10816"><g transform="translate(-174.79416,-166.34495)"><g data-paper-data="{&quot;isPaintingLayer&quot;:true}" fill-rule="nonzero" stroke-linejoin="miter" stroke-miterlimit="10" stroke-dasharray="" stroke-dashoffset="0" style="mix-blend-mode: normal"><text transform="translate(194.48324,183.90143) scale(0.32512,0.32512)" font-size="40" xml:space="preserve" data-paper-data="{&quot;origPos&quot;:null}" fill="#ffffff" fill-rule="nonzero" stroke="#000000" stroke-width="8" stroke-linecap="butt" stroke-linejoin="miter" stroke-miterlimit="10" stroke-dasharray="" stroke-dashoffset="0" font-family="Pixel" font-weight="normal" text-anchor="start" style="mix-blend-mode: normal"><tspan x="0" dy="0">没有足够的金钱</tspan></text><text transform="translate(194.48316,183.90145) scale(0.32512,0.32512)" font-size="40" xml:space="preserve" data-paper-data="{&quot;origPos&quot;:null}" fill="#ffffff" fill-rule="nonzero" stroke="#000000" stroke-width="0" stroke-linecap="butt" stroke-linejoin="miter" stroke-miterlimit="10" stroke-dasharray="" stroke-dashoffset="0" font-family="Pixel" font-weight="normal" text-anchor="start" style="mix-blend-mode: normal"><tspan x="0" dy="0">没有足够的金钱</tspan></text><g data-paper-data="{&quot;origPos&quot;:null}"><path d="M182.41886,181.91107v-4.30247" fill="none" stroke="#000000" stroke-width="2.5" stroke-linecap="round"/><path d="M188.79664,185.35305c-0.29567,0.37677 -12.19453,0.33739 -12.50248,0c-0.38588,-0.42277 5.63317,-11.25223 6.14705,-11.25223c0.46327,0 6.71454,10.79462 6.35543,11.25223z" data-paper-data="{&quot;index&quot;:null}" fill="none" stroke="#000000" stroke-width="3" stroke-linecap="round"/><path d="M188.79664,185.35305c-0.29567,0.37677 -12.19453,0.33739 -12.50248,0c-0.38588,-0.42277 5.63317,-11.25223 6.14705,-11.25223c0.46327,0 6.71454,10.79462 6.35543,11.25223z" data-paper-data="{&quot;index&quot;:null}" fill="none" stroke="#ffffff" stroke-width="1" stroke-linecap="round"/><path d="M181.67093,183.58144c0,-0.41307 0.33486,-0.74793 0.74793,-0.74793c0.41307,0 0.74793,0.33486 0.74793,0.74793c0,0.41307 -0.33486,0.74793 -0.74793,0.74793c-0.41307,0 -0.74793,-0.33486 -0.74793,-0.74793z" fill="#000000" stroke="#000000" stroke-width="1" stroke-linecap="butt"/><path d="M182.41886,177.60859v4.30248" fill="none" stroke="#ffffff" stroke-width="1" stroke-linecap="round"/><path d="M181.96592,183.65267c0,-0.24784 0.20092,-0.44876 0.44876,-0.44876c0.24784,0 0.44876,0.20092 0.44876,0.44876c0,0.24784 -0.20092,0.44876 -0.44876,0.44876c-0.24784,0 -0.44876,-0.20092 -0.44876,-0.44876z" fill="#ffffff" stroke="none" stroke-width="0.5" stroke-linecap="butt"/></g></g></g></svg>