<svg version="1.1" xmlns="http://www.w3.org/2000/svg" xmlns:xlink="http://www.w3.org/1999/xlink" width="33.25781" height="45.11334" viewBox="0,0,33.25781,45.11334"><defs><radialGradient cx="239.43687" cy="204.6917" r="11.72025" gradientUnits="userSpaceOnUse" id="color-1"><stop offset="0" stop-color="#efff00"/><stop offset="1" stop-color="#ffde00"/></radialGradient><radialGradient cx="239.01298" cy="193.52917" r="13.415" gradientUnits="userSpaceOnUse" id="color-2"><stop offset="0" stop-color="#efff00"/><stop offset="1" stop-color="#ffde00"/></radialGradient></defs><g transform="translate(-220.50555,-173.42166)"><g data-paper-data="{&quot;isPaintingLayer&quot;:true}" fill-rule="nonzero" stroke-miterlimit="10" stroke-dasharray="" stroke-dashoffset="0" style="mix-blend-mode: normal"><g data-paper-data="{&quot;origPos&quot;:null,&quot;origRot&quot;:0}"><path d="M240.14961,186.30761c0.48088,0.31122 1.48342,0.84235 0.05281,2.94136c-1.43061,2.09901 -5.64368,2.51246 -6.14056,2.492c-2.28832,0.12993 -4.58026,-0.18156 -6.7509,-0.9175c-7.33755,-2.50704 -7.35601,-10.62458 -4.98006,-11.90258c2.37594,-1.278 3.38855,3.7219 6.66992,6.79133c1.31405,1.17541 2.94217,1.94237 4.68523,2.20706c2.07166,0.45237 5.98269,-1.9229 6.46357,-1.61168z" fill="#faa51f" stroke="none" stroke-width="1" stroke-linecap="butt" stroke-linejoin="miter"/><path d="M225.3141,180.85825c1.0135,1.48233 2.90669,4.12873 2.90669,4.12873c0,0 -2.49008,-0.39835 -3.78227,0.68476c-1.29219,1.08312 0.06647,3.54329 -0.88021,2.89692c-1.17054,-1.20282 -2.03196,-2.67154 -2.51042,-4.28027c-0.54358,-2.12231 0.2041,-5.06091 1.40844,-5.44727c1.28721,-0.29237 1.84426,0.53479 2.85777,2.01712z" fill="#ffffff" stroke="none" stroke-width="1" stroke-linecap="butt" stroke-linejoin="miter"/><path d="M240.14961,186.30761c0.48088,0.31122 1.48342,0.84235 0.05281,2.94136c-1.43061,2.09901 -5.64368,2.51246 -6.14056,2.492c-2.28832,0.12993 -4.58026,-0.18156 -6.7509,-0.9175c-7.33755,-2.50704 -7.35601,-10.62458 -4.98006,-11.90258c2.37594,-1.278 3.38855,3.7219 6.66992,6.79133c1.31405,1.17541 2.94217,1.94237 4.68523,2.20706c2.07166,0.45237 5.98269,-1.9229 6.46357,-1.61168z" fill="none" stroke="#8e5322" stroke-width="0.84" stroke-linecap="round" stroke-linejoin="round"/></g><path d="M246.74686,183.04457c0,4.47829 1.06581,11.08377 -6.52275,11.08377c-7.58856,0 -6.90644,-6.0457 -6.90644,-10.54638c0,-4.50068 2.62189,-9.74029 6.90644,-9.74029c4.28455,0 6.52275,4.70221 6.52275,9.20289z" data-paper-data="{&quot;origPos&quot;:null}" fill="#faa51f" stroke="#8e5322" stroke-width="0.84" stroke-linecap="round" stroke-linejoin="round"/><path d="M245.0842,184.42913c0,3.06902 0.57554,7.67255 -3.51717,7.67255c-4.09271,0 -3.77296,-4.1651 -3.77296,-7.23412c0,-3.06902 1.40687,-3.94588 3.77296,-3.94588c2.3661,0 3.51717,0.43843 3.51717,3.50745z" data-paper-data="{&quot;origPos&quot;:null}" fill="#ffffff" stroke="none" stroke-width="1" stroke-linecap="butt" stroke-linejoin="miter"/><path d="M248.66161,218.11501h-17.4771l-2.9764,-23.13966h23.4405z" data-paper-data="{&quot;origPos&quot;:null}" fill="url(#color-1)" stroke="#693d19" stroke-width="0.84" stroke-linecap="round" stroke-linejoin="round"/><path d="M226.51336,195.85096v-4.91595h26.83v4.91595z" data-paper-data="{&quot;origPos&quot;:null}" fill="url(#color-2)" stroke="#693d19" stroke-width="0.84" stroke-linecap="round" stroke-linejoin="round"/><path d="M243.65336,176.46168l4.28,1.21c4.7,1.51 3.37,4.61 1.29,6c-0.86,0.55 -3.1,0.31 -3.1,0.32" data-paper-data="{&quot;origPos&quot;:null}" fill="#faa51f" stroke="#8e5322" stroke-width="0.84" stroke-linecap="round" stroke-linejoin="round"/><path d="M234.07336,183.98168c0,0 -1.78,0.24 -2.47,-0.31c-1.69,-1.38 -2.75,-4.49 1,-6l3.41,-1.21" data-paper-data="{&quot;origPos&quot;:null}" fill="#faa51f" stroke="#8e5322" stroke-width="0.84" stroke-linecap="round" stroke-linejoin="round"/></g></g></svg>